<svg width="84" height="85" viewBox="0 0 84 85" fill="none" xmlns="http://www.w3.org/2000/svg">
  <g clip-path="url(#clip0)">
    <path d="M40.1836 58.5487C37.5495 59.4041 35.0186 60.2083 32.505 61.0809C31.5581 61.406 30.8866 61.2006 30.198 60.4992C27.7016 57.9841 25.1707 55.5032 22.6227 53.0394C21.9856 52.4235 21.8135 51.8075 22.0889 50.9692C22.9498 48.4712 23.7762 45.9561 24.637 43.3725C22.5366 43.2014 20.4706 43.0303 18.3874 42.8593C16.5624 42.7224 14.7202 42.5855 12.8953 42.4315C11.2425 42.2946 10.7604 41.5418 11.363 40.0362C12.9125 36.1352 15.3745 32.8331 18.3013 29.856C23.5524 24.5179 29.8881 20.8051 36.7575 17.8965C37.274 17.6741 37.7905 17.2806 38.1004 16.8186C43.5409 8.8969 51.2023 4.26022 60.4132 1.89911C67.5409 0.0683929 74.7891 -0.308016 82.1062 0.205269C83.2941 0.290816 83.7073 0.701444 83.7762 1.84778C84.2582 9.59838 83.7762 17.2634 81.5897 24.7574C79.1105 33.2608 74.4964 40.2928 67.0244 45.3401C66.6112 45.6139 66.2496 46.093 66.043 46.5549C62.9096 53.7922 58.8637 60.4136 52.9239 65.7689C50.1521 68.2669 47.1047 70.3884 43.5753 71.7401C41.9397 72.3731 41.2338 71.877 41.0961 70.1489C40.8379 66.2822 40.5107 62.4667 40.1836 58.5487ZM78.594 25.2707C78.4218 25.0654 78.2324 24.8087 78.0086 24.5863C71.7073 18.3756 65.3888 12.1648 59.1047 5.91984C58.6227 5.44078 58.2267 5.38945 57.6069 5.59476C50.3414 8.10986 44.3673 12.3359 40.1664 18.8033C33.6757 28.8124 28.769 39.54 25.0846 50.8494C24.9986 51.106 25.1363 51.5851 25.3429 51.7904C27.3917 53.8607 29.4921 55.8796 31.5409 57.9498C31.868 58.292 32.1435 58.3434 32.5911 58.2065C43.1277 54.8872 53.1133 50.3532 62.6858 44.8953C70.2267 40.6008 75.495 34.4243 78.3013 26.2117C78.3701 25.938 78.4562 25.6642 78.594 25.2707ZM61.9799 4.36288C67.7647 10.2143 73.6011 16.1342 79.472 22.0712C80.8321 18.136 81.7963 6.09094 81.0215 2.94279C76.3902 2.27552 65.561 3.13099 61.9799 4.36288ZM43.7819 68.5919C49.5667 66.881 60.6714 54.5793 62.0143 48.5054C61.9799 48.5054 61.9627 48.4883 61.9283 48.5054C55.868 51.7391 49.6872 54.699 43.3171 57.2997C43.1105 57.3852 42.9039 57.7616 42.9211 57.9841C43.1793 61.4915 43.472 65.0161 43.7819 68.5919ZM34.8809 21.729C26.3759 25.9209 18.9727 31.1392 14.4103 39.8138C18.2152 40.1046 21.8135 40.3955 25.4118 40.635C25.6011 40.6521 25.911 40.3099 26.0143 40.0875C26.9785 37.983 27.8393 35.8444 28.8379 33.7741C30.8006 29.7876 32.8149 25.8353 34.8809 21.729Z" fill="#007079" />
    <path d="M22.6054 63.3564C22.3127 63.8526 22.175 64.2461 21.8995 64.5199C15.7188 70.8846 9.52079 77.2494 3.3228 83.6141C2.65135 84.2985 1.85939 84.3498 1.27402 83.8023C0.671438 83.2548 0.688654 82.3993 1.37732 81.6978C7.55809 75.3502 13.7216 69.0197 19.9024 62.6721C20.3845 62.1759 20.9698 61.885 21.5896 62.2272C22.0028 62.4325 22.2611 62.9458 22.6054 63.3564Z" fill="#007079" />
    <path d="M15.7188 85C14.4792 84.9658 13.8422 83.9734 14.2209 83.1008C14.3242 82.8784 14.4964 82.6731 14.6686 82.4849C18.594 78.1049 22.5021 73.7248 26.4448 69.3619C26.7374 69.0368 27.2539 68.6775 27.6499 68.6946C28.0803 68.7117 28.5968 69.0368 28.8895 69.3961C29.2855 69.8923 29.0961 70.4911 28.6829 70.9531C27.7188 72.0481 26.7547 73.126 25.7733 74.2039C22.7776 77.5402 19.7991 80.8766 16.7862 84.213C16.4419 84.5723 15.9598 84.8118 15.7188 85Z" fill="#007079" />
    <path d="M15.1506 56.8207C14.858 57.3168 14.703 57.6932 14.462 57.9841C10.5194 62.4155 6.55954 66.8297 2.5825 71.2611C1.91105 72.0139 1.10187 72.1166 0.482066 71.5862C-0.15495 71.0387 -0.172166 70.2345 0.499283 69.4817C4.45911 65.0503 8.41894 60.6361 12.3788 56.2047C12.8608 55.6743 13.4462 55.315 14.1176 55.6914C14.5308 55.9139 14.7891 56.41 15.1506 56.8207Z" fill="#007079" />
    <path d="M56.5222 19.6246C60.7575 19.6588 64.1836 23.0978 64.132 27.2725C64.0803 31.4815 60.6198 34.8349 56.3845 34.7836C52.1492 34.7323 48.7231 31.2933 48.7747 27.1357C48.8092 22.9438 52.2869 19.5904 56.5222 19.6246ZM61.3773 27.2212C61.3945 24.5692 59.208 22.3792 56.5222 22.3621C53.7848 22.345 51.5294 24.5008 51.5294 27.1699C51.5122 29.8047 53.6987 31.9948 56.3845 32.0461C59.0875 32.0974 61.3429 29.9074 61.3773 27.2212Z" fill="#007079" />
  </g>
  <defs>
    <clipPath id="clip0">
      <rect width="84" height="85" fill="white" />
    </clipPath>
  </defs>
</svg>
