<svg width="86" height="71" viewBox="0 0 86 71" fill="none" xmlns="http://www.w3.org/2000/svg">
  <path fill-rule="evenodd" clip-rule="evenodd" d="M3.5 0C1.567 0 0 1.56701 0 3.5V54.2055C0 56.1385 1.56701 57.7055 3.5 57.7055H35.3573V60.1757H25.6412C23.7082 60.1757 22.1412 61.7427 22.1412 63.6757V66.6382C22.1412 68.5712 23.7082 70.1382 25.6412 70.1382H60.1107C62.0437 70.1382 63.6107 68.5712 63.6107 66.6382V63.6757C63.6107 61.7427 62.0437 60.1757 60.1107 60.1757H50.7653V57.7055H82.3573C84.2903 57.7055 85.8573 56.1385 85.8573 54.2055V3.5C85.8573 1.567 84.2903 0 82.3573 0H3.5ZM48.6226 57.7055H37.5V60.1757H48.6226V57.7055ZM3 3.5C3 3.22386 3.22386 3 3.5 3H82.3573C82.6334 3 82.8573 3.22386 82.8573 3.5V54.2055C82.8573 54.4816 82.6334 54.7055 82.3573 54.7055H3.5C3.22386 54.7055 3 54.4816 3 54.2055V3.5ZM25.1412 63.6757C25.1412 63.3996 25.3651 63.1757 25.6412 63.1757H60.1107C60.3868 63.1757 60.6107 63.3996 60.6107 63.6757V66.6382C60.6107 66.9144 60.3868 67.1382 60.1107 67.1382H25.6412C25.3651 67.1382 25.1412 66.9144 25.1412 66.6382V63.6757Z" fill="#007079" />
  <path d="M55.0922 43.2084H30.2279C27.927 43.2084 26.4826 40.7249 27.6203 38.7249L40.0877 16.81C41.2396 14.7851 44.1594 14.7887 45.3064 16.8164L57.7033 38.7313C58.8346 40.7312 57.3899 43.2084 55.0922 43.2084Z" stroke="#007079" stroke-width="3" />
  <path fill-rule="evenodd" clip-rule="evenodd" d="M41.497 33.4043L41.497 23.7852L43.6397 23.7852L43.6397 33.4043L41.497 33.4043Z" fill="#007079" />
  <path fill-rule="evenodd" clip-rule="evenodd" d="M41.497 37.8438L41.497 35.4596L43.6397 35.4596L43.6397 37.8438L41.497 37.8438Z" fill="#007079" />
</svg>
