<svg width="80" height="80" viewBox="0 0 80 80" fill="none" xmlns="http://www.w3.org/2000/svg">
  <path d="M40.9333 54.8605L54.6895 41.1042L70.8296 57.2443C74.6282 61.043 74.6282 67.2018 70.8296 71.0005C67.0309 74.7992 60.872 74.7992 57.0733 71.0005L40.9333 54.8605Z" stroke="#007079" stroke-width="3" />
  <path d="M43.6924 50.4615L22.6706 29.5438L16.9803 28.1774L7.44752 14.4153L14.6294 7.23346" stroke="#007079" stroke-width="3" />
  <path d="M50.7695 44L29.3732 22.8416L28.0068 17.1513L13.9367 7.40505" stroke="#007079" stroke-width="3" />
  <path d="M24.5355 63.319L25.6279 62.2586L24.5514 61.182L22.1256 58.7563L19.0383 55.669L17.9619 54.5925L16.9014 55.6848L17.9777 56.7296C16.9014 55.6848 16.9014 55.6848 16.9013 55.6849L16.901 55.6852L16.8997 55.6866L16.8945 55.6919L16.8738 55.7132L16.7929 55.7965L16.4851 56.113C16.2199 56.3857 15.8407 56.7752 15.3853 57.2419C14.4743 58.1757 13.2591 59.4182 12.041 60.6545C10.8217 61.892 9.60417 63.1185 8.68683 64.0223C8.65705 64.0517 8.62763 64.0806 8.59857 64.1092C6.46609 59.0895 7.44809 53.0619 11.54 48.9701C16.9219 43.5881 25.6478 43.5881 31.0298 48.9701C36.4117 54.3521 36.4117 63.078 31.0298 68.4599C27.0225 72.4672 21.1587 73.492 16.2029 71.5294C16.2171 71.515 16.2313 71.5006 16.2457 71.486C17.1438 70.5743 18.3631 69.364 19.5936 68.1517C20.8229 66.9406 22.0584 65.7324 22.987 64.8266C23.4512 64.3738 23.8384 63.9967 24.1096 63.733L24.4244 63.427L24.5072 63.3465L24.5284 63.3259L24.5337 63.3207L24.5351 63.3194L24.5354 63.3191C24.5355 63.3191 24.5355 63.319 23.4907 62.2427L24.5355 63.319Z" stroke="#007079" stroke-width="3" />
  <line x1="33.4009" y1="50.6316" x2="38.324" y2="45.7085" stroke="#007079" stroke-width="3" />
  <line x1="26.6316" y1="44.4777" x2="32.1701" y2="38.9392" stroke="#007079" stroke-width="3" />
  <path d="M55.4645 16.6809L54.3721 17.7413L55.4486 18.8178L57.8744 21.2436L60.9617 24.3309L62.0381 25.4074L63.0986 24.3151L62.0223 23.2702C63.0986 24.3151 63.0986 24.315 63.0987 24.315L63.099 24.3147L63.1003 24.3133L63.1055 24.308L63.1262 24.2866L63.2071 24.2033L63.5149 23.8868C63.7802 23.6142 64.1594 23.2247 64.6148 22.7579C65.5257 21.8242 66.7409 20.5817 67.959 19.3454C69.1784 18.1078 70.3958 16.8813 71.3132 15.9776C71.343 15.9482 71.3724 15.9193 71.4014 15.8907C73.5339 20.9104 72.5519 26.9379 68.4601 31.0298C63.0781 36.4118 54.3522 36.4118 48.9703 31.0298C43.5883 25.6478 43.5883 16.9219 48.9703 11.54C52.9775 7.5327 58.8413 6.50786 63.7971 8.47044C63.7829 8.48484 63.7687 8.49932 63.7543 8.51389C62.8562 9.42558 61.6369 10.6359 60.4064 11.8482C59.1771 13.0592 57.9416 14.2675 57.013 15.1733C56.5489 15.6261 56.1616 16.0031 55.8904 16.2669L55.5757 16.5729L55.4928 16.6534L55.4716 16.674L55.4663 16.6792L55.465 16.6804L55.4646 16.6808C55.4646 16.6808 55.4645 16.6809 56.5093 17.7572L55.4645 16.6809Z" stroke="#007079" stroke-width="3" />
  <line x1="45.7179" y1="38.9301" x2="51.46" y2="33.2877" stroke="#007079" stroke-width="3" />
  <line x1="38.9301" y1="32.1793" x2="44.573" y2="26.4371" stroke="#007079" stroke-width="3" />
</svg>
